<?xml version="1.0" encoding="UTF-8"?>
<svg width="752pt" height="752pt" version="1.1" viewBox="0 0 752 752" xmlns="http://www.w3.org/2000/svg">
 <g>
  <path d="m464.03 238.28c-35.121-18.023-74.758-24.984-112.76-20.746-60.148 0.74609-118.79 35.156-149.33 87.125-31.91 54.297-32.52 125.23-2.9102 180.82 41.422 77.762 126.81 121.18 235.25 90.535 31.316-8.8477 76.93-39.484 101.44-87.137-0.82031 1.75-2.3516 3.8477-4.3555 6.1523 59.824-90.805 30.07-206.77-67.324-256.75zm28.902 285.89c-46.18 39.344-113.3 51.527-170.96 30.984-56.859-20.234-101.85-71.797-114.62-131.36-14.617-68.172 21.895-151.73 94.422-183.28 98.703-42.93 223.91 12.379 247.09 119.8 12.664 58.715-9.8086 124.56-55.922 163.86z"/>
  <path d="m475.21 214.83 2.7227-43.574c0.16406-2.6875-1.875-4.9922-4.5547-5.1641-2.668-0.11328-4.9922 1.875-5.1641 4.5547l-2.7227 43.574c-0.16406 2.6875 1.875 4.9922 4.5547 5.1641 2.6719 0.16797 4.9922-1.8672 5.1641-4.5547z"/>
  <path d="m508.79 231.83c12.488-10.289 23.004-22.574 31.266-36.516 1.3672-2.3047 0.60156-5.2969-1.7109-6.6641-2.3047-1.375-5.2891-0.60938-6.6641 1.7109-7.6797 12.961-17.461 24.391-29.074 33.957-3.5391 2.9102-1.4336 8.6211 3.0898 8.6211 1.0938 0 2.1875-0.35938 3.0938-1.1094z"/>
  <path d="m568.64 239.75-40.844 9.5273c-5.6133 1.3047-4.6406 9.6055 1.0977 9.6055 1.0781 0-3.9219 0.99609 41.953-9.6562 2.6172-0.60937 4.2461-3.2266 3.6367-5.8398-0.61719-2.625-3.2734-4.2695-5.8438-3.6367z"/>
  <path d="m413.29 318.1c-24.559-19.629-66.941-17.27-100.46 22.922-1.7188 2.0664-1.4453 5.1328 0.62109 6.8555 2.0664 1.7188 5.1328 1.4453 6.8555-0.62109 29.75-35.672 66.289-38.062 86.91-21.555 12.715 10.176 17.605 28.59 11.133 41.926-7.3594 15.191-26.758 22.688-40.172 36.055-19.059 19.023-24.074 50.285-11.941 74.32 0.86328 1.6992 2.5703 2.6719 4.3516 2.6719 3.5938 0 5.9766-3.8086 4.3398-7.0586-10.301-20.395-6.0391-46.906 10.125-63.043 12.84-12.82 33.211-20.453 42.055-38.703 8.5039-17.535 2.5703-40.656-13.812-53.77z"/>
  <path d="m372.19 493.77-2.1094-0.33594c-2.6797-0.45703-5.1562 1.3633-5.582 4.0234-0.42969 2.6562 1.3672 5.1523 4.0234 5.582 2.0977 0.31641 2.2734 0.39844 2.8945 0.39844 2.3438 0 4.4102-1.6992 4.7969-4.0859 0.42969-2.6562-1.3711-5.1523-4.0234-5.582z"/>
 </g>
</svg>
