<?xml version="1.0" encoding="UTF-8"?>
<svg width="752pt" height="752pt" version="1.1" viewBox="0 0 752 752" xmlns="http://www.w3.org/2000/svg">
 <defs>
  <clipPath id="a">
   <path d="m139.21 139.21h473.58v473.58h-473.58z"/>
  </clipPath>
 </defs>
 <g clip-path="url(#a)">
  <path d="m218.09 357.21c-3.9648-17.195 1.0156-35.23 13.246-47.949 4.5156-4.8086 13.32-8.5078 29.523-12.359 21.977-5.2539 54.461-9.7695 88.871-14.578 52.906-7.3984 112.77-15.762 145.7-28.414h0.003906c0.20703-0.12891 0.42969-0.23047 0.66406-0.29688 8.0352-3.125 17.094-2.0742 24.199 2.8125 6.9648 4.8242 11.113 12.766 11.098 21.238v78.656c-11.371-3.75-23.715-3.293-34.781 1.2812-11.066 4.5742-20.121 12.969-25.527 23.656-1.625-2.8281-3.5078-5.5039-5.6211-7.9922-11.539-13.676-29.031-20.859-46.852-19.234-17.824 1.6211-33.73 11.84-42.613 27.375-8.8789-15.535-24.789-25.754-42.609-27.375-17.82-1.625-35.312 5.5586-46.852 19.234-2.1133 2.4883-3.9961 5.1641-5.625 7.9922-4.1641-8.2734-10.551-15.227-18.445-20.074-7.8945-4.8516-16.984-7.4023-26.246-7.3789-6.2031-0.011719-12.355 1.1406-18.133 3.4062zm387.3 174.19h-458.78c-4.0859 0-7.3984 3.3125-7.3984 7.3984v22.199c0 1.9648 0.78125 3.8477 2.168 5.2344 1.3867 1.3867 3.2695 2.168 5.2305 2.168h458.78c1.9648 0 3.8477-0.78125 5.2344-2.168 1.3867-1.3867 2.168-3.2695 2.168-5.2344v-22.199c0-1.9609-0.78125-3.8438-2.168-5.2305s-3.2695-2.168-5.2344-2.168zm-414.38 73.996c0 1.9648 0.78125 3.8477 2.168 5.2344s3.2695 2.168 5.2344 2.168h355.18c1.9648 0 3.8438-0.78125 5.2344-2.168 1.3867-1.3867 2.1641-3.2695 2.1641-5.2344-0.03125-8.0078 2.5703-15.809 7.4023-22.199h-384.79c4.832 6.3906 7.4297 14.191 7.3984 22.199zm290-207.27-19.832 118.47h67.336l21.902-105.37 0.003906-0.003906c1.9727-9.3008 0.11719-19.004-5.1562-26.918-5.2695-7.9141-13.508-13.367-22.852-15.133-9.3438-1.7617-19.004 0.31641-26.793 5.7656-7.793 5.4492-13.059 13.809-14.609 23.188zm-257.51 118.47h67.336l-19.828-118.4c-1.3828-9.3398-6.5117-17.711-14.207-23.184-7.6953-5.4727-17.289-7.5703-26.566-5.8086 1.9766-0.38281 3.9805-0.58594 5.9961-0.60547-2.043 0.011719-4.082 0.21484-6.0859 0.61328-9.4297 1.6406-17.797 7.0352-23.176 14.953-5.3828 7.918-7.3203 17.684-5.3711 27.055zm230.65-133.79c-7.1172-8.418-17.387-13.535-28.395-14.145-11.008-0.61328-21.785 3.332-29.793 10.906-8.0117 7.5742-12.551 18.113-12.551 29.137v107.89h62.75l16.871-101.23v-0.078125c1.9883-11.609-1.2617-23.5-8.8828-32.484zm-125.64-14.207c-11.789-0.015624-22.984 5.168-30.602 14.168-7.6172 9-10.879 20.898-8.9141 32.523l16.871 101.3h62.75v-107.89c-0.007812-10.633-4.2344-20.828-11.754-28.352-7.5195-7.5195-17.719-11.746-28.352-11.754zm19.164-100.93c51.43-7.1758 109.37-15.316 140.96-27.008l0.37109-0.22266 1.8516-0.66406h-0.003906c3.457-1.2969 7.0625-2.168 10.73-2.5898-8.6406-21.23-27.234-36.805-49.652-41.586-42.695-11.32-43.289-23.977-44.398-47.062l-0.074219-2.293c-0.16406-2.8281-1.9102-5.3203-4.5117-6.4375-2.6445-1.1016-5.6797-0.61328-7.8438 1.2578-10.836 10.5-18.965 23.477-23.68 37.812-6.1523 18.594-19.93 33.691-37.887 41.512-37.293 16.871-61.934 37.738-72.516 61.27 22.125-4.957 52.832-9.25 85.32-13.762z"/>
 </g>
</svg>
